HIERARCHY
ROOT Hips
{
	OFFSET -0.179506 -22.333345 2.821913
	CHANNELS 6 Xposition Yposition Zposition Zrotation Yrotation Xrotation 
	JOINT LeftUpLeg
	{
		OFFSET 6.951974 -9.140623 -0.681533
		CHANNELS 3 Zrotation Yrotation Xrotation
		JOINT LeftLeg
		{
			OFFSET 3.427654 -37.519855 -0.449580
			CHANNELS 3 Zrotation Yrotation Xrotation
			JOINT LeftFoot
			{
				OFFSET -1.359570 -39.796059 -4.369333
				CHANNELS 3 Zrotation Yrotation Xrotation
				JOINT LeftToe
				{
					OFFSET 2.635814 -5.579078 11.928840
					CHANNELS 3 Zrotation Yrotation Xrotation
					End Site
					{
						OFFSET 0.000000 0.000000 0.000000
					}
				}
			}
		}
	}
	JOINT RightUpLeg
	{
		OFFSET -6.767048 -9.052170 -0.431982
		CHANNELS 3 Zrotation Yrotation Xrotation
		JOINT RightLeg
		{
			OFFSET -3.829005 -38.256897 -0.885003
			CHANNELS 3 Zrotation Yrotation Xrotation
			JOINT RightFoot
			{
				OFFSET 1.577377 -39.841461 -4.231180
				CHANNELS 3 Zrotation Yrotation Xrotation
				JOINT RightToe
				{
					OFFSET -2.537174 -4.814398 12.334795
					CHANNELS 3 Zrotation Yrotation Xrotation
					End Site
					{
						OFFSET 0.000000 0.000000 0.000000
					}
				}
			}
		}
	}
	JOINT Spine
	{
		OFFSET -0.253288 10.896323 -2.669631
		CHANNELS 3 Zrotation Yrotation Xrotation
		JOINT Spine1
		{
			OFFSET 0.548704 13.518043 0.109247
			CHANNELS 3 Zrotation Yrotation Xrotation
			JOINT Spine2
			{
				OFFSET 0.145701 5.292222 2.542457
				CHANNELS 3 Zrotation Yrotation Xrotation
				JOINT Neck
				{
					OFFSET -0.277840 21.387037 -4.285703
					CHANNELS 3 Zrotation Yrotation Xrotation
					JOINT Head
					{
						OFFSET 0.515184 6.496960 5.134897
						CHANNELS 3 Zrotation Yrotation Xrotation
						End Site
						{
							OFFSET 0.000000 0.000000 0.000000
						}
					}
				}
				JOINT LeftShoulder
				{
					OFFSET 7.884473 12.174932 -3.408961
					CHANNELS 3 Zrotation Yrotation Xrotation
					JOINT LeftArm
					{
						OFFSET 9.097692 3.046888 -0.886815
						CHANNELS 3 Zrotation Yrotation Xrotation
						JOINT LeftForeArm
						{
							OFFSET 25.961220 -1.277207 -2.745643
							CHANNELS 3 Zrotation Yrotation Xrotation
							JOINT LeftHand
							{
								OFFSET 24.923361 0.898606 -0.117091
								CHANNELS 3 Zrotation Yrotation Xrotation
								End Site
								{
									OFFSET 0.000000 0.000000 0.000000
								}
							}
						}
					}
				}
				JOINT RightShoulder
				{
					OFFSET -8.175920 11.883285 -3.861528
					CHANNELS 3 Zrotation Yrotation Xrotation
					JOINT RightArm
					{
						OFFSET -9.601238 3.255117 -0.914307
						CHANNELS 3 Zrotation Yrotation Xrotation
						JOINT RightForeArm
						{
							OFFSET -25.374195 -1.332924 -2.140099
							CHANNELS 3 Zrotation Yrotation Xrotation
							JOINT RightHand
							{
								OFFSET -25.529810 0.777228 -0.555919
								CHANNELS 3 Zrotation Yrotation Xrotation
								End Site
								{
									OFFSET 0.000000 0.000000 0.000000
								}
							}
						}
					}
				}
			}
		}
	}
}
MOTION
Frames: 13
Frame Time: 0.033333
-38.226624 13.164182 34.739189 177.081247 3.145456 81.972395 26.599351 40.470071 -86.230718 -1.212503 27.716801 151.853701 6.596700 16.338513 -70.317812 nan nan nan -16.417673 -38.712087 -82.948172 -6.371905 -21.570400 149.893264 -7.661186 0.698150 -46.830776 nan nan nan 0.752830 0.466845 74.492999 2.070858 -0.926200 -13.770100 3.855950 1.409231 -2.360428 -1.060453 4.054970 -5.641166 3.114047 -9.842895 -17.566326 -13.565819 -37.874753 6.431694 -43.466173 -38.740394 11.957519 1.210658 -17.513686 16.680865 26.213734 -6.551107 -0.410095 19.968797 44.739996 11.615195 27.072886 33.856236 -9.315577 4.484384 20.101926 29.351705 -31.488107 3.779881 1.352339 
-38.242912 13.244886 34.788746 177.034082 3.024990 81.525370 26.558208 40.434400 -86.031696 -1.328453 27.694162 151.875823 6.509820 16.347724 -70.408452 nan nan nan -16.630817 -38.693201 -82.564017 -6.161322 -21.456623 149.724547 -7.644331 0.637464 -46.819103 nan nan nan 0.642794 0.654282 74.571367 2.214103 -0.964276 -13.212365 3.962666 1.448312 -2.711252 -1.321393 3.941240 -5.424388 3.223384 -9.767439 -17.593147 -14.445660 -38.046553 6.816424 -42.374379 -38.627027 11.437655 0.649574 -17.405094 16.332067 26.570747 -6.824532 -0.290100 20.838133 44.908088 11.988264 26.117201 33.539634 -9.843573 5.086487 19.532924 28.406379 -31.576875 4.008173 1.144989 
-38.254513 13.252007 34.900299 177.170782 2.845414 80.817157 26.710872 40.081966 -85.382651 -1.412579 27.857979 151.994575 6.808153 16.452013 -71.643761 nan nan nan -17.087885 -38.956831 -81.770918 -5.857210 -21.250644 149.613987 -7.584203 1.053731 -46.672825 nan nan nan 0.709657 0.605539 76.404720 2.360147 -0.737910 -14.646519 4.200786 1.088259 -1.366817 -2.214336 2.748949 -5.604442 2.707621 -10.765932 -20.925548 -12.413169 -36.165671 4.531972 -45.106226 -40.165086 12.889408 0.739170 -18.000038 14.991928 26.026189 -5.602672 -1.551574 18.017156 43.625408 8.870245 28.005225 35.523216 -8.194528 5.278231 18.120123 29.524896 -30.798079 2.404533 1.242780 
-38.267578 13.290663 34.999680 177.262432 2.629237 80.402562 26.770331 39.895388 -84.935119 -1.469812 28.014984 151.955451 7.108406 16.957901 -71.797790 nan nan nan -17.204225 -39.193769 -81.538120 -5.496577 -21.157046 149.504547 -7.488945 0.994487 -46.445715 nan nan nan 0.665542 0.892293 77.045722 2.506992 -0.722637 -14.854889 4.215316 1.029554 -1.443019 -2.122875 2.613831 -5.863836 2.615490 -10.774515 -20.603998 -12.269822 -35.812013 4.035243 -43.814875 -41.424130 12.384141 0.023008 -17.233833 18.886119 18.521073 -2.935870 2.996627 18.582221 42.867357 8.818482 27.862055 35.684717 -7.911400 5.530589 17.703797 31.563844 -23.753043 -0.109530 4.394812 
-38.313507 13.429605 35.086765 177.668218 2.641081 79.884798 24.661777 39.324854 -87.351603 -2.966651 30.216136 149.181093 11.570971 -1.403929 -45.512623 nan nan nan -18.312111 -39.947075 -79.989358 -5.936718 -19.849004 149.651098 -9.262878 2.369931 -46.331506 nan nan nan 1.343373 0.373202 78.733558 1.593884 -1.017369 -16.984087 4.643334 0.658363 -1.093468 -2.633807 2.883430 -4.605080 3.680899 -10.813212 -21.376279 -12.559764 -36.518566 3.866315 -44.130566 -39.908899 13.529261 -0.210830 -16.018489 20.870456 23.893858 -6.217376 2.907744 18.256846 41.334109 8.491347 29.827021 36.585559 -7.107913 3.785115 18.593920 26.594620 -28.013372 1.885086 3.654685 
-37.954845 13.942819 35.442783 175.250292 2.145141 79.004652 27.075012 42.392382 -83.224817 -3.773548 28.976329 149.320076 13.591211 -2.564615 -45.591842 nan nan nan -18.276816 -37.990474 -79.624017 -5.537551 -18.980484 149.732442 -8.755610 4.856986 -46.289728 nan nan nan 3.460841 2.990663 80.365419 0.413573 -0.984509 -17.593732 4.255056 -1.110391 -1.251829 -1.959356 4.194878 -4.638913 4.544910 -11.028520 -23.959417 -11.059199 -34.602744 1.572480 -47.618161 -40.541804 16.219436 -0.427348 -14.285009 24.857044 23.913860 -6.793297 6.796577 17.949556 38.393134 5.554616 33.913872 37.134282 -2.437763 4.877077 17.646593 37.967517 -26.341711 0.906561 13.005805 
-38.011353 14.016035 35.588806 175.562532 2.086635 78.579292 27.137516 41.981793 -82.905585 -3.790239 28.776377 149.298652 13.769470 -2.526163 -45.428729 nan nan nan -18.900299 -38.442026 -78.739310 -5.186478 -18.794336 149.565545 -8.879545 4.979185 -46.388522 nan nan nan 3.404412 2.597255 80.676772 0.440020 -1.105355 -17.754453 4.238040 -0.980117 -0.936911 -2.128943 3.958312 -4.065003 4.734327 -10.707286 -24.526320 -10.974352 -34.498439 1.391240 -47.603553 -40.587029 15.872650 -0.727873 -14.928307 23.514347 22.526435 -6.822470 3.563438 17.672856 38.464175 5.311643 33.737278 37.008390 -2.533975 5.186751 17.722010 38.033290 -24.392459 1.011337 13.292464 
-38.028023 14.099143 35.726704 175.714405 1.971137 78.232911 27.131797 41.793983 -82.601120 -3.876643 28.690895 149.272046 13.795221 -2.384480 -45.299334 nan nan nan -19.360444 -38.684302 -78.167485 -4.904487 -18.666537 149.462118 -8.924519 4.921412 -46.347531 nan nan nan 3.223623 2.372200 80.881913 0.435369 -1.156021 -17.765936 4.162452 -0.843771 -0.805132 -2.205712 3.741941 -3.394111 4.989581 -10.379556 -25.169734 -10.897062 -34.289865 1.103684 -47.770702 -40.475130 16.187012 -0.869442 -15.200063 23.518984 22.112641 -6.615268 1.117519 17.408343 38.480883 4.921316 33.774308 37.193389 -2.078546 5.450023 16.972395 37.859795 -24.185437 1.159191 12.652811 
-38.033707 14.152088 35.823730 175.781319 1.858442 77.958283 27.165319 41.683779 -82.305301 -3.960917 28.646229 149.240832 13.934501 -2.042220 -45.462506 nan nan nan -19.710713 -38.779395 -77.801416 -4.724996 -18.597565 149.452247 -8.854327 4.901743 -46.301063 nan nan nan 3.088943 2.361346 80.943848 0.498088 -1.149907 -17.647327 4.132873 -0.783496 -0.706737 -2.216129 3.629838 -2.907678 5.138453 -10.168220 -25.657773 -10.670060 -34.090063 1.106627 -48.176767 -40.560572 16.489059 -0.303246 -15.478509 24.295017 20.567720 -6.061615 -0.192001 17.312522 38.096537 4.844903 34.177377 36.867616 -2.018217 4.938364 18.178102 38.157898 -22.664909 0.660203 12.218707 
-38.044529 14.171049 35.908863 175.821328 1.754364 77.814642 27.165258 41.507515 -82.083991 -3.913083 28.497505 149.192760 14.556872 -1.355719 -45.911010 nan nan nan -19.907801 -38.787730 -77.637958 -4.631310 -18.552004 149.462784 -8.752484 4.859256 -46.301737 nan nan nan 2.987070 2.370513 80.832416 0.559840 -1.129089 -17.253556 4.113487 -0.775441 -0.831167 -2.175189 3.567799 -2.512530 5.159158 -10.048291 -26.030459 -10.568183 -33.949665 1.042757 -48.379075 -40.455558 16.632053 0.140630 -15.741498 25.080306 19.492589 -5.998143 -0.160548 17.078592 37.880632 4.673315 34.577975 36.736448 -1.878241 4.507312 18.752678 38.236780 -21.858166 0.425379 11.737570 
-38.056229 14.211958 36.007763 175.746918 1.660665 77.528103 27.447814 41.502588 -81.436427 -3.764251 28.090823 149.213182 14.746980 -2.343910 -45.284695 nan nan nan -20.389477 -38.661095 -77.101583 -4.698895 -18.305381 149.493969 -8.730996 5.413464 -46.341837 nan nan nan 3.194901 2.406367 81.331257 0.453530 -1.072026 -17.643157 4.075988 -1.042959 -0.650773 -2.199556 3.663279 -2.032056 5.354848 -10.116170 -26.648020 -9.869251 -33.695525 0.016755 -49.788968 -40.188084 17.221110 2.013589 -16.893113 19.623069 15.109153 -8.151749 -11.573386 16.249322 37.681726 3.373904 36.224279 36.302425 -0.103778 3.439288 19.163776 38.039933 -20.022582 0.029888 9.800727 
-38.083454 14.229150 36.077454 175.737033 1.575008 77.403604 27.542414 41.403647 -81.186135 -3.558186 27.812503 149.187220 15.334375 -1.793600 -45.048994 nan nan nan -20.547476 -38.630575 -76.958676 -4.648924 -18.259099 149.496634 -8.672893 5.453004 -46.319033 nan nan nan 3.188371 2.366023 81.304969 0.408469 -1.082134 -17.326895 4.046285 -1.091416 -0.827329 -2.202616 3.661017 -1.728384 5.464734 -10.055378 -26.917520 -9.870704 -33.677255 0.005566 -49.804506 -40.015270 17.049000 2.535451 -17.105990 19.748783 13.249750 -8.417942 -11.178540 15.927007 37.542770 3.108874 36.639764 36.242220 0.067752 3.338470 19.429369 38.024370 -18.229157 -0.290859 9.170571 
-38.099854 14.239308 36.133194 175.786778 1.525672 77.384899 27.468773 41.351115 -81.178197 -3.579005 27.976201 149.155183 14.711996 -2.437768 -44.634875 nan nan nan -20.767233 -38.671773 -76.777568 -4.687719 -18.257977 149.531629 -8.746631 5.570897 -46.351093 nan nan nan 3.212181 2.226188 81.284680 0.301110 -1.140994 -17.351883 4.047740 -1.173347 -0.810050 -2.232989 3.676785 -1.262952 5.595430 -9.952644 -27.384858 -9.839297 -33.543359 0.036443 -49.871302 -39.857295 16.837063 2.866648 -17.440332 19.241685 11.315187 -8.999790 -10.600768 15.752534 37.519147 2.987109 36.631497 36.399231 0.046352 3.813461 18.948231 38.028660 -14.627062 -0.745201 8.977814 
